<?xml version="1.0" encoding="UTF-8"?>
<svg version="1.1" xmlns="http://www.w3.org/2000/svg" width="800" height="800">
<path d="M0 0 C1.17208008 0.17160645 2.34416016 0.34321289 3.55175781 0.52001953 C64.56185116 9.59127843 123.8937676 32.88825846 174 69 C174.75909668 69.54269531 175.51819336 70.08539063 176.30029297 70.64453125 C186.97331126 78.29370755 197.21404126 86.24479188 207 95 C208.39798828 96.23169922 208.39798828 96.23169922 209.82421875 97.48828125 C216.53398733 103.50554931 222.92859471 109.82794749 229.3125 116.1875 C230.58504639 117.45303711 230.58504639 117.45303711 231.88330078 118.74414062 C236.79587188 123.66928574 241.48194354 128.71243463 246 134 C246.96095142 135.09488193 247.92313765 136.18868168 248.88671875 137.28125 C267.44769526 158.52092778 283.19866433 182.02452134 296.75390625 206.73828125 C297.84748445 208.7231771 298.96423732 210.69168904 300.09375 212.65625 C325.26691691 257.63781054 338.78772365 310.03244997 344 361 C344.08732895 361.83422485 344.1746579 362.66844971 344.26463318 363.5279541 C344.91150742 370.08955224 345.17301996 376.58443008 345.203125 383.17578125 C345.21018463 384.2110495 345.21724426 385.24631775 345.22451782 386.31295776 C345.40202006 420.03302413 342.99755223 452.003952 336 485 C335.78005371 486.04784668 335.56010742 487.09569336 335.33349609 488.17529297 C329.51234142 515.21072495 319.86358315 542.05030314 308 567 C307.33701904 568.39629639 307.33701904 568.39629639 306.66064453 569.82080078 C290.70330208 603.12332696 270.13077496 634.26905712 245.2109375 661.5703125 C243.82557328 663.09274456 242.45348363 664.62748176 241.1015625 666.1796875 C235.78448814 672.25334161 230.13506328 677.97189608 224.4375 683.6875 C223.63393066 684.49566162 222.83036133 685.30382324 222.00244141 686.13647461 C217.16369966 690.96281441 212.21885648 695.5875421 207 700 C206.39502686 700.51167725 205.79005371 701.02335449 205.16674805 701.55053711 C194.81326598 710.21905438 184.06356583 718.26363142 173 726 C172.36771484 726.4444043 171.73542969 726.88880859 171.08398438 727.34667969 C160.15981994 734.97951424 148.67081844 741.58237539 137 748 C136.08686035 748.50321777 135.1737207 749.00643555 134.23291016 749.52490234 C79.50744517 779.45304142 79.50744517 779.45304142 59.9375 775 C54.4106012 773.20311919 51.02427457 769.90585448 48 765 C45.37089869 759.13166663 45.71461543 753.24955736 45.72875977 746.94628906 C45.72091965 745.13028954 45.72091965 745.13028954 45.71292114 743.27760315 C45.70268792 740.65028359 45.69596388 738.02322527 45.69503975 735.39591217 C45.69308787 731.22340176 45.67496828 727.05105501 45.65428162 722.87860107 C45.60522227 712.50531525 45.57436176 702.13198467 45.55297852 691.75860596 C45.53635638 683.71124484 45.51323608 675.66402402 45.46995777 667.6167562 C45.45193688 664.15766823 45.4395407 660.69877059 45.44125557 657.23963165 C45.43974189 627.07493204 42.5072486 598.63628888 22 575 C21.34 574.01 20.68 573.02 20 572 C21.96812038 570.03187962 25.53969577 570.18052794 28.234375 569.765625 C29.76373689 569.5219735 31.29303116 569.27789727 32.82226562 569.03344727 C33.62704346 568.90592072 34.43182129 568.77839417 35.26098633 568.64700317 C83.52561329 560.94868866 133.58657389 546.06896207 164.20703125 505.04296875 C194.71384503 462.0631817 205.98008639 402.43906195 197.875 350.5 C192.87666938 323.02776277 181.46386541 295.28957811 162.59179688 274.44458008 C159.09284056 270.51932687 159.09284056 270.51932687 158.625 267.90234375 C158.74875 267.25394531 158.8725 266.60554688 159 265.9375 C159.13535156 265.15503906 159.27070312 264.37257813 159.41015625 263.56640625 C159.81180959 261.81881521 160.2372983 260.07657062 160.68359375 258.33984375 C168.51503111 227.54160043 165.99543734 193.08862427 153 164 C115.42040647 162.43659626 77.01947617 183.27131091 47 204 C46.67 204.33 46.34 204.66 46 205 C39.5370775 205.47311449 33.54595115 204.03379499 27.25 202.6875 C-4.63632757 196.1108725 -36.43842781 193.41672314 -69 194 C-69.99870117 194.01788574 -70.99740234 194.03577148 -72.02636719 194.05419922 C-96.448306 194.57228618 -119.95364537 197.45817372 -143.7890625 202.6953125 C-145.85901321 203.13192708 -147.92928441 203.56702749 -150 204 C-150.77738525 204.18103271 -151.55477051 204.36206543 -152.35571289 204.54858398 C-156.86344269 205.42043604 -159.52201999 204.68228543 -163.32397461 202.14208984 C-163.93893799 201.7033252 -164.55390137 201.26456055 -165.1875 200.8125 C-166.58594296 199.8802047 -167.98713082 198.95201738 -169.390625 198.02734375 C-170.13248047 197.53347168 -170.87433594 197.03959961 -171.63867188 196.53076172 C-188.69775832 185.4719867 -206.52900131 176.66444061 -225.75 170.125 C-226.86262207 169.7431958 -227.97524414 169.3613916 -229.12158203 168.96801758 C-239.36335771 165.60030839 -249.51613274 163.67319874 -260.3125 163.875 C-261.58738281 163.89304688 -262.86226562 163.91109375 -264.17578125 163.9296875 C-265.10777344 163.95289063 -266.03976562 163.97609375 -267 164 C-267.3403125 165.7015625 -267.3403125 165.7015625 -267.6875 167.4375 C-268.5259343 171.27633134 -269.6020553 174.9978175 -270.77783203 178.74633789 C-278.90212568 204.96236909 -280.86558833 235.44261933 -271.75 261.6875 C-271.00390625 264.4609375 -271.00390625 264.4609375 -271 267 C-272.75610435 269.89405996 -274.81803271 271.9370994 -277.265625 274.2734375 C-299.49066196 296.43497435 -311.05445726 333.52895283 -311.203125 364.18359375 C-311.21371445 365.63039772 -311.21371445 365.63039772 -311.22451782 367.10643005 C-311.45569465 408.00399225 -308.21435214 448.49802349 -288 485 C-287.64534668 485.64066406 -287.29069336 486.28132813 -286.92529297 486.94140625 C-273.60112677 510.67676303 -255.58033931 528.423441 -232 542 C-230.87335938 542.65742187 -229.74671875 543.31484375 -228.5859375 543.9921875 C-199.27512851 560.63998189 -165.85799378 565.97689103 -133 571 C-133 574.81548936 -134.01149595 575.43607618 -136.5 578.25 C-146.41321717 590.3564068 -153.27970106 605.52052939 -154.5625 621.1875 C-155.11714617 624.55571493 -155.46439417 625.61080545 -158.2578125 627.640625 C-161.46663043 629.06106174 -164.61799278 630.06281728 -168 631 C-169.28275063 631.38084231 -170.5652987 631.76236745 -171.84765625 632.14453125 C-194.95537253 638.78157928 -218.13405061 637.76440021 -239.3984375 626.14453125 C-244.37376713 623.27073703 -248.76670104 619.87789139 -253 616 C-253.6084375 615.45988281 -254.216875 614.91976562 -254.84375 614.36328125 C-262.022793 607.62477043 -267.55410629 599.28866696 -272.875 591.0625 C-284.61958695 573.28250031 -300.47975552 558.42315032 -321.49609375 552.62109375 C-325.65073003 551.88465321 -329.66130482 551.61363597 -333.875 551.5625 C-334.57665283 551.5521875 -335.27830566 551.541875 -336.0012207 551.53125 C-341.06388523 551.61792503 -344.54416336 552.80698379 -349 555 C-348.64955585 560.95755051 -347.37140848 563.05418066 -343 567 C-341.11064142 568.49354323 -339.19262858 569.95143355 -337.25 571.375 C-336.19425781 572.15875 -335.13851562 572.9425 -334.05078125 573.75 C-332.23822227 575.08679126 -330.4238164 576.4210934 -328.60546875 577.75 C-308.31226326 592.96076303 -297.54125154 613.43248386 -288.3125 636.625 C-281.89386331 652.39203439 -270.76567786 664.41137672 -257 674 C-256.17757812 674.57621094 -255.35515625 675.15242187 -254.5078125 675.74609375 C-243.27998443 683.02338972 -230.07525027 686.76998799 -217 689 C-215.97132813 689.18433594 -214.94265625 689.36867188 -213.8828125 689.55859375 C-197.00463189 691.47734064 -179.83462142 690.17167773 -163.15869141 687.27539062 C-160.75368844 686.96857731 -158.42227611 686.98237185 -156 687 C-155.93031641 696.24943028 -155.87709587 705.4987694 -155.84456348 714.74840546 C-155.82894512 719.04395355 -155.80777734 723.3393213 -155.77368164 727.63476562 C-155.74095087 731.7844875 -155.72311821 735.93403651 -155.71536827 740.08387756 C-155.70984928 741.6626304 -155.69907223 743.24137438 -155.68280983 744.8200531 C-155.50747667 762.55497031 -155.50747667 762.55497031 -160.76171875 769.2421875 C-167.74520978 775.16328131 -173.83649665 776.69446341 -183 776 C-185.60351607 775.33437615 -187.94292542 774.62766006 -190.4375 773.6875 C-191.15139893 773.42606201 -191.86529785 773.16462402 -192.60083008 772.89526367 C-253.29194806 750.0985894 -311.99800312 712.1314288 -354.125 662.2109375 C-355.66258869 660.39786416 -357.22621718 658.62159666 -358.8125 656.8515625 C-377.71381364 635.63372618 -393.24302121 611.81021767 -407 587 C-407.47260254 586.15727539 -407.94520508 585.31455078 -408.43212891 584.44628906 C-432.35063736 541.49679374 -447.1863617 492.74938274 -453 444 C-453.08506805 443.32276886 -453.17013611 442.64553772 -453.25778198 441.94778442 C-455.08115279 427.19237302 -455.36213164 412.54303898 -455.3125 397.6875 C-455.31001251 396.49690979 -455.30752502 395.30631958 -455.30496216 394.07965088 C-455.11104109 333.97419432 -442.14105036 276.23137934 -416 222 C-415.58105469 221.11973145 -415.16210938 220.23946289 -414.73046875 219.33251953 C-403.10807179 194.9762186 -388.55214188 172.29941011 -372 151 C-371.33613281 150.14277344 -370.67226563 149.28554687 -369.98828125 148.40234375 C-365.97006316 143.29470701 -361.75845747 138.41094219 -357.37109375 133.6171875 C-356.0962761 132.21005764 -354.82707919 130.79717717 -353.59521484 129.35229492 C-348.47435812 123.36240189 -342.96410875 117.77797704 -337.39501953 112.2097168 C-335.76172552 110.57424118 -334.1366153 108.93092292 -332.51171875 107.28710938 C-326.75766525 101.50241672 -320.89363832 96.08710123 -314.49804688 91.0012207 C-312.22181841 89.17770187 -310.0340836 87.29399212 -307.859375 85.3515625 C-303.82422132 81.78956643 -299.5892384 78.55625175 -295.25 75.375 C-294.42999512 74.77381348 -293.60999023 74.17262695 -292.76513672 73.55322266 C-209.38823156 13.0206073 -102.46223208 -15.79305081 0 0 Z " fill="#FFFFFF" transform="translate(455,3)"/>
</svg>
